<svg xmlns="http://www.w3.org/2000/svg" width="20" height="20" viewBox="0 0 20 20">
    <path data-name="사각형 1677" style="fill:none" d="M0 0h20v20H0z"/>
    <g data-name="그룹 146">
        <path data-name="패스 37" d="M822.794 684.012a1.529 1.529 0 1 1 1.719 1.188 2.755 2.755 0 0 1-2.429 1.143 3.028 3.028 0 0 1 .711-2.33" transform="translate(-812.147 -680.748)" style="fill:#1e1e1e;fill-rule:evenodd"/>
        <path data-name="패스 38" d="M815.621 691.194c.552 0 1.575-.758 2.906-.758a3.641 3.641 0 0 1 3.195 1.632 3.542 3.542 0 0 0-1.764 3.09 3.631 3.631 0 0 0 2.2 3.319s-1.536 4.324-3.61 4.324c-.953 0-1.694-.642-2.7-.642-1.023 0-2.038.666-2.7.666-1.894 0-4.288-4.1-4.288-7.4 0-3.243 2.026-4.945 3.926-4.945 1.235 0 2.194.713 2.836.713" transform="translate(-805.549 -684.669)" style="fill:#1e1e1e;fill-rule:evenodd"/>
    </g>
</svg>
