<svg xmlns="http://www.w3.org/2000/svg" width="18.182" height="22.303" viewBox="0 0 18.182 22.303">
    <path data-name="패스 182" d="M823.065 684.534a2.091 2.091 0 1 1 2.35 1.624 3.767 3.767 0 0 1-3.322 1.562 4.141 4.141 0 0 1 .972-3.186" transform="translate(-813.033 -682.593)" style="fill:#fff;fill-rule:evenodd"/>
    <path data-name="패스 183" d="M818.106 691.472c.754 0 2.153-1.036 3.974-1.036a4.978 4.978 0 0 1 4.368 2.231 4.844 4.844 0 0 0-2.412 4.226 4.966 4.966 0 0 0 3.005 4.539s-2.1 5.912-4.937 5.912c-1.3 0-2.316-.878-3.689-.878-1.4 0-2.787.911-3.691.911-2.591 0-5.864-5.608-5.864-10.116 0-4.435 2.771-6.762 5.369-6.762 1.69 0 3 .974 3.878.974" transform="translate(-808.859 -685.073)" style="fill:#fff;fill-rule:evenodd"/>
</svg>
