<svg xmlns="http://www.w3.org/2000/svg" width="22" height="18.861" viewBox="0 0 22 18.861">
    <path data-name="패스 29" d="M5.7 4.7a.7.7 0 0 0-.987.987l17.46 17.47a.692.692 0 0 0 .673.177.68.68 0 0 0 .314-.182.7.7 0 0 0 0-.982z" transform="translate(-2.932 -4.499)" style="fill:#767676"/>
    <g data-name="그룹 139">
        <path data-name="패스 30" d="M13.458 20.465a4.416 4.416 0 0 1-4.2-6.306l-2.622-2.628a34.452 34.452 0 0 0-4.18 3.993.777.777 0 0 0 0 1.046c3.188 3.522 6 6.552 10.79 6.552a9.457 9.457 0 0 0 4.042-.943l-2.136-2.136a4.463 4.463 0 0 1-1.694.422z" transform="translate(-2.252 -6.619)" style="fill:#767676"/>
        <path data-name="패스 31" d="M27.053 15.439a.77.77 0 0 0 .025-1.017c-2.569-3.119-6.13-6.547-10.83-6.547a9.194 9.194 0 0 0-4.027.933l2.146 2.146a4.328 4.328 0 0 1 1.685-.422 4.416 4.416 0 0 1 4.2 6.306l2.628 2.628a32.488 32.488 0 0 0 4.173-4.027z" transform="translate(-5.257 -5.517)" style="fill:#767676"/>
        <path data-name="패스 32" d="M13.51 17.846a3.156 3.156 0 0 0 2.89 2.893 3.07 3.07 0 0 0 1.149-.128l-3.919-3.919a3.213 3.213 0 0 0-.12 1.154z" transform="translate(-5.643 -8.175)" style="fill:#767676"/>
        <path data-name="패스 33" d="M22.046 17.917v-.192a2.178 2.178 0 0 1-.894.192H21l.914.918a3.14 3.14 0 0 0 .132-.918z" transform="translate(-7.903 -8.487)" style="fill:#767676"/>
        <path data-name="패스 34" d="M17.608 14.335a2.308 2.308 0 0 1 .152-.83h-.152a3.107 3.107 0 0 0-.909.138l.918.918c-.004-.079-.009-.152-.009-.226z" transform="translate(-6.607 -7.213)" style="fill:#767676"/>
    </g>
</svg>
