<svg xmlns="http://www.w3.org/2000/svg" width="16" height="16" viewBox="0 0 16 16">
    <path data-name="사각형 1732" style="fill:none" d="M0 0h16v16H0z"/>
    <g data-name="Icon feather-share-2">
        <path data-name="패스 168" d="M26.581 5.041A2.041 2.041 0 1 1 24.541 3a2.041 2.041 0 0 1 2.041 2.041z" transform="translate(-12.46 -1.802)" style="stroke:#19984b;stroke-linecap:round;stroke-linejoin:round;stroke-width:1.5px;fill:none"/>
        <path data-name="패스 169" d="M8.581 15.541a2.041 2.041 0 1 1-2.04-2.041 2.041 2.041 0 0 1 2.04 2.041z" transform="translate(-2.622 -7.541)" style="stroke:#19984b;stroke-linecap:round;stroke-linejoin:round;stroke-width:1.5px;fill:none"/>
        <path data-name="패스 170" d="M26.581 26.041A2.041 2.041 0 1 1 24.541 24a2.041 2.041 0 0 1 2.04 2.041z" transform="translate(-12.46 -13.279)" style="stroke:#19984b;stroke-linecap:round;stroke-linejoin:round;stroke-width:1.5px;fill:none"/>
        <path data-name="패스 171" d="m12.885 20.265 4.646 2.707" transform="translate(-7.205 -11.238)" style="stroke:#19984b;stroke-linecap:round;stroke-linejoin:round;stroke-width:1.5px;fill:none"/>
        <path data-name="패스 172" d="m17.524 9.765-4.639 2.707" transform="translate(-7.205 -5.499)" style="stroke:#19984b;stroke-linecap:round;stroke-linejoin:round;stroke-width:1.5px;fill:none"/>
    </g>
</svg>
