<svg xmlns="http://www.w3.org/2000/svg" width="14" height="14" viewBox="0 0 14 14">
    <path data-name="사각형 1883" style="fill:none" d="M0 0h14v14H0z"/>
    <g data-name="그룹 892">
        <path data-name="사각형 1881" transform="translate(2.5 6.809)" style="stroke-linejoin:round;stroke:#4b4b4b;fill:none" d="M0 0h9v6H0z"/>
        <path data-name="사각형 1882" transform="translate(1.5 3.809)" style="stroke-linejoin:round;stroke:#4b4b4b;fill:none" d="M0 0h11v3H0z"/>
        <path data-name="패스 1484" d="M563 833.691a11.108 11.108 0 0 1 1.036 2.47 11.111 11.111 0 0 1-2.47-1.036 1.014 1.014 0 0 1 1.434-1.434z" transform="translate(-557.09 -832.468)" style="stroke-linejoin:bevel;stroke:#4b4b4b;fill:none"/>
        <path data-name="패스 1485" d="M567.52 833.691a11.092 11.092 0 0 0-1.037 2.47 11.1 11.1 0 0 0 2.47-1.036 1.014 1.014 0 0 0-1.433-1.434z" transform="translate(-559.431 -832.468)" style="stroke-linejoin:bevel;stroke:#4b4b4b;fill:none"/>
        <path data-name="선 42" transform="translate(7 4.074)" style="fill:#fff;stroke-linejoin:bevel;stroke:#4b4b4b" d="M0 0v9"/>
    </g>
</svg>
