<svg xmlns="http://www.w3.org/2000/svg" width="20" height="20" viewBox="0 0 20 20">
    <defs>
        <linearGradient id="u2bpxpyt4b" x1=".5" x2=".5" y2="1" gradientUnits="objectBoundingBox">
            <stop offset="0" stop-color="#207cb0"/>
            <stop offset=".376" stop-color="#3bb2be"/>
            <stop offset=".796" stop-color="#57e9ce"/>
            <stop offset="1" stop-color="#63ffd4"/>
        </linearGradient>
        <linearGradient id="wzpcrcbuqc" y1=".5" x2="1" y2=".5" gradientUnits="objectBoundingBox">
            <stop offset="0" stop-color="#4bc3ae"/>
            <stop offset="1" stop-color="#dee999"/>
        </linearGradient>
        <linearGradient id="z1wiiiq0fd" x1=".5" x2=".5" y2="1" gradientUnits="objectBoundingBox">
            <stop offset="0" stop-color="#ec403d"/>
            <stop offset=".384" stop-color="#c83a75"/>
            <stop offset=".799" stop-color="#a635ac"/>
            <stop offset="1" stop-color="#9934c2"/>
        </linearGradient>
        <linearGradient id="d5u6vud3je" x1=".5" x2=".5" y2="1" gradientUnits="objectBoundingBox">
            <stop offset="0" stop-color="#f87"/>
            <stop offset=".612" stop-color="#ffb175"/>
            <stop offset="1" stop-color="#ffc774"/>
        </linearGradient>
        <clipPath id="gjbzliuhoa">
            <path data-name="패스 43" d="m317.762 275.569-3.3-1.906-6.37-3.678c-.354-.2-.706-.081-.706.346v14.985c0 .32.252.458.559.28l6.517-3.763 3.3-1.906 3.175-1.833c.372-.215.336-.51.022-.679s-3.197-1.846-3.197-1.846z" transform="translate(-307.383 -269.889)" style="fill:none"/>
        </clipPath>
    </defs>
    <path data-name="사각형 1677" style="fill:none" d="M0 0h20v20H0z"/>
    <g data-name="그룹 149" style="clip-path:url(#gjbzliuhoa)" transform="translate(3.415 2.107)">
        <path data-name="패스 39" d="M307.383 269v16.224l8.181-8.112z" transform="translate(-307.383 -269.254)" style="fill:url(#u2bpxpyt4b)"/>
        <path data-name="패스 40" d="m317.762 274.786-3.3-1.907-7.076-4.086v.059l8.181 8.112z" transform="translate(-307.383 -269.105)" style="fill:url(#wzpcrcbuqc)"/>
        <path data-name="패스 41" d="M307.383 305.635v.059l7.076-4.086 3.3-1.906-2.2-2.179z" transform="translate(-307.383 -289.664)" style="fill:url(#z1wiiiq0fd)"/>
        <path data-name="패스 42" d="m338.345 289.862-2.2 2.179 2.2 2.179 3.774-2.179z" transform="translate(-327.967 -284.182)" style="fill:url(#d5u6vud3je)"/>
    </g>
</svg>
