<svg xmlns="http://www.w3.org/2000/svg" width="14" height="14" viewBox="0 0 14 14">
    <path data-name="사각형 1716" style="fill:none" d="M0 0h14v14H0z"/>
    <g data-name="Icon feather-copy">
        <path data-name="패스 88" d="M14.7 13.5h5.4a1.2 1.2 0 0 1 1.2 1.2v5.4a1.2 1.2 0 0 1-1.2 1.2h-5.4a1.2 1.2 0 0 1-1.2-1.2v-5.4a1.2 1.2 0 0 1 1.2-1.2z" transform="translate(-8.3 -8.3)" style="stroke:#000;stroke-linecap:round;stroke-linejoin:round;fill:none"/>
        <path data-name="패스 89" d="M4.8 10.8h-.6A1.2 1.2 0 0 1 3 9.6V4.2A1.2 1.2 0 0 1 4.2 3h5.4a1.2 1.2 0 0 1 1.2 1.2v.6" style="stroke:#000;stroke-linecap:round;stroke-linejoin:round;fill:none" transform="translate(-2 -2)"/>
    </g>
</svg>
