<svg xmlns="http://www.w3.org/2000/svg" width="22" height="14.142" viewBox="0 0 22 14.142">
    <path data-name="패스 35" d="M13.24 7.875c-3.948 0-7.061 2.485-10.783 6.546a.776.776 0 0 0 0 1.046c3.187 3.521 6 6.55 10.788 6.55 4.734 0 8.284-3.815 10.808-6.58a.77.77 0 0 0 .025-1.016C21.5 11.3 17.939 7.875 13.24 7.875zm.216 11.485a4.419 4.419 0 1 1 4.208-4.208 4.421 4.421 0 0 1-4.208 4.208z" style="fill:#767676" transform="translate(-2.252 -7.875)"/>
    <path data-name="패스 36" d="M16.643 14.335a2.307 2.307 0 0 1 .152-.83h-.152a3.142 3.142 0 1 0 3.143 3.143v-.192a2.177 2.177 0 0 1-.894.192 2.28 2.28 0 0 1-2.249-2.313z" transform="translate(-5.645 -9.572)" style="fill:#767676"/>
</svg>
