<svg xmlns="http://www.w3.org/2000/svg" width="14" height="14" viewBox="0 0 14 14">
    <path data-name="패스 176" d="M0 0h14v14H0z" style="fill:none"/>
    <g data-name="그룹 301">
        <g data-name="그룹 298">
            <path data-name="패스 173" d="M70.979 501.731a.607.607 0 0 1-.607-.607v-2.661a.607.607 0 0 1 .607-.607.607.607 0 0 1 .607.607v2.661a.607.607 0 0 1-.607.607z" transform="translate(-63.979 -492.802)" style="fill-rule:evenodd;fill:#121212"/>
            <path data-name="패스 174" d="M70.979 506.817a.607.607 0 0 1-.607-.607.607.607 0 0 1 .607-.607.607.607 0 0 1 .607.607.607.607 0 0 1-.607.607z" transform="translate(-63.979 -496.008)" style="fill-rule:evenodd;fill:#121212"/>
        </g>
        <path data-name="패스 175" d="m73.2 500.6-5.431-9.406a1.57 1.57 0 0 0-2.719 0l-5.433 9.406a1.57 1.57 0 0 0 1.374 2.355h10.833A1.57 1.57 0 0 0 73.2 500.6zm-1.122 1.059a.381.381 0 0 1-.251.089H60.991a.379.379 0 0 1-.252-.089.362.362 0 0 1-.076-.454l5.431-9.406a.362.362 0 0 1 .627 0l5.431 9.406a.363.363 0 0 1-.077.452z" style="fill:#121212" transform="translate(-59.407 -489.68)"/>
    </g>
</svg>
