<svg xmlns="http://www.w3.org/2000/svg" xmlns:xlink="http://www.w3.org/1999/xlink" width="84" height="84" viewBox="0 0 84 84">
    <defs>
        <linearGradient id="aq3cqhheua" x1=".5" y1="1.12" x2=".5" y2="1.922" gradientUnits="objectBoundingBox">
            <stop offset="0" stop-color="#6e9baf"/>
            <stop offset="1" stop-color="#b4ddf0"/>
        </linearGradient>
        <linearGradient id="oud9p4ylcd" x1=".5" y1=".961" x2=".5" y2=".688" xlink:href="#aq3cqhheua"/>
        <linearGradient id="fv78oeqb8e" x1=".5" y1="1.071" x2=".5" y2="1.802" xlink:href="#aq3cqhheua"/>
        <linearGradient id="nkthf9fxaf" x1=".5" y1="1.09" x2=".5" y2=".675" gradientUnits="objectBoundingBox">
            <stop offset="0" stop-color="#d0d1d3"/>
            <stop offset="1" stop-color="#fff"/>
        </linearGradient>
        <linearGradient id="03hlvc617b" x1=".81" y1=".663" x2=".234" y2=".486" gradientUnits="objectBoundingBox">
            <stop offset="0" stop-color="#bbbcbe"/>
            <stop offset="1" stop-color="#fff"/>
        </linearGradient>
        <linearGradient id="flyro3ljpc" x1=".5" y1=".973" x2=".5" y2=".669" gradientUnits="objectBoundingBox">
            <stop offset="0" stop-color="#bbbcbe"/>
            <stop offset="1" stop-color="#e6e6e7"/>
        </linearGradient>
        <linearGradient id="erj3wimg0g" x1=".5" y1=".986" x2=".5" y2=".347" xlink:href="#03hlvc617b"/>
        <linearGradient id="8ygbiziflh" x1=".5" y1="1.04" x2=".5" y2=".643" xlink:href="#flyro3ljpc"/>
    </defs>
    <g transform="translate(-44 -326)">
        <circle data-name="타원 2" cx="42" cy="42" r="42" transform="translate(44 326)" style="fill:#94b5c4"/>
        <g data-name="그룹 198">
            <path data-name="패스 49" d="M559.452 355.67a6.169 6.169 0 0 1 1.334-4.525c.492-.706 2.778-3.066 2.557-3.866a.928.928 0 0 0-.745-.6c-2.812-.53-6.275.242-9.1.507a3.826 3.826 0 0 0 .487 1.554 3.366 3.366 0 0 0 1.042.944 8.763 8.763 0 0 0 3.574 1.3 18.583 18.583 0 0 0 .616 6.535c.467-.426.328-1.207.235-1.849z" transform="translate(-446.975 29.678)" style="fill:url(#aq3cqhheua)"/>
            <g data-name="그룹 172">
                <path data-name="패스 50" d="M289.7 345.156a8.763 8.763 0 0 1-3.574-1.3 3.366 3.366 0 0 1-1.042-.944 3.827 3.827 0 0 1-.487-1.554c-1.046.1-2.092.187-3.138.241-8.9.455-17.724-1.659-26.627-1.965a92.56 92.56 0 0 0-13.068.6c-.252.027-.51.059-.771.093-.012 1.157-1.1 2.046-2.088 2.715l-3.186 2.165a1.726 1.726 0 0 0-.747.788 1.754 1.754 0 0 0-.031.725 38.53 38.53 0 0 1 .122 5.433c.375.81 1.2.915 2.453.949 2.36.065 4.706.243 7.071.247q18.529.036 37.037-1.06c2.524-.15 5.049-.315 7.577-.319a1.7 1.7 0 0 0 1.063-.235c.018-.014.034-.03.051-.045a18.583 18.583 0 0 1-.615-6.534z" transform="translate(-178.073 35.504)" style="fill:url(#oud9p4ylcd)"/>
                <path data-name="패스 51" d="M228.293 349.227a1.754 1.754 0 0 1 .031-.725 1.726 1.726 0 0 1 .747-.788l3.186-2.165c.983-.668 2.076-1.558 2.088-2.715a18.661 18.661 0 0 1-3.66.262c-.946-.071-1.849-.858-2.78-.382-1.487.759-.653 2.737-.4 3.94q.1.469.18.944a40.563 40.563 0 0 1 .5 5.8 3.209 3.209 0 0 0 .235 1.263 38.532 38.532 0 0 0-.127-5.434z" transform="translate(-171.426 32.997)" style="fill:url(#fv78oeqb8e)"/>
            </g>
            <path data-name="패스 52" d="M227.5 326.485q-.066.611-.079 1.226a1.3 1.3 0 0 0 .142.753 1.366 1.366 0 0 0 .669.445l3.248 1.323-2.182 1.418c-.376.244-.8.588-.739 1.032a1.125 1.125 0 0 0 .611.715c3 1.849 7 .976 10.356.941q6.064-.062 12.128-.025 12.257.076 24.508.559a9.5 9.5 0 0 0 6.663-1.77 1.318 1.318 0 0 0 .6-.881c.05-.982-2.163-1.819-.772-2.729.412-.269 1.578-.139 2.087-.257 1.112-.258 2.211-.655 3.306-.979.483-.143-1.406-1.177-1.621-1.208-.956-.134-1.983.032-2.968-.061a23.454 23.454 0 0 1-7.278-1.617 11.4 11.4 0 0 0-2.022-.8 7.394 7.394 0 0 0-2.049-.092c-6.984.4-14.114 2.609-20.83.656-1.161-.338-2.289-.8-3.476-1.026a22.722 22.722 0 0 0-3.817 0c-1.56-.04-3.117-.011-4.679.022q-5.059.107-10.115.3a1.743 1.743 0 0 0-1.249.385 1.636 1.636 0 0 0-.337.875q-.065.399-.105.795z" transform="translate(-171.742 48.657)" style="fill:#fff"/>
            <path data-name="패스 53" d="M262.291 344.065c.08.562.771.768 1.332.852l6.009.9a1.649 1.649 0 0 0-.407 1 245.854 245.854 0 0 1 31.872-.3 14.85 14.85 0 0 0 4.85-.248c.626-.176 1.356-.7 1.124-1.31-.164-.431-.706-.552-1.165-.6a67.1 67.1 0 0 0-9.515 0 193.767 193.767 0 0 1-28.293-.878 26.118 26.118 0 0 0-2.658-.378c-.345-.011-3.216.491-3.149.962z" transform="translate(-201.177 32.549)" style="fill:#fff"/>
            <g data-name="그룹 197">
                <g data-name="그룹 196">
                    <path data-name="패스 54" d="M322.015 174.735c.562-.358 1.292-.138 1.958-.117a.85.85 0 0 0 .423-.069.515.515 0 0 0 .21-.205q-.492-1.064-.916-2.157a1.419 1.419 0 0 1-.139-.7 1.074 1.074 0 0 1 .146-.383c.05-.311.007-1.191-1.624-2.323a20.3 20.3 0 0 0-6.883-3.925 62.025 62.025 0 0 1-6.94-1.593s-1.934-1.195-9.045-1.536l-5.632-1.138a12.285 12.285 0 0 0-8.7 1.479s-5.461 3.015-8.476 6.713c0 0-3.356 2.5-1.593 7.623 0 0 .443.994 1.22.912l.065-.113c-.105.184.918 1.494 1.055 1.687a17.2 17.2 0 0 0 1.411 1.737c.836.9 2.12 1.465 2.842 2.449a3.544 3.544 0 0 1 .514 2.059 16.348 16.348 0 0 1-.164 2.631c-.106.734-.261 1.472-.4 2.209v.424s-.4.8 1.252 1.024l8.817.227s1.593-.227.341-1.138a3.419 3.419 0 0 0-2.275-.8 2.471 2.471 0 0 1-1.024-2.56s2.048-4.892 2.56-6.769a1.162 1.162 0 0 1 .239-.3c.106-.331.25-.652.36-.982a6.875 6.875 0 0 0-.511-5.064 3.3 3.3 0 0 1 1.164.877 2.245 2.245 0 0 0 .377.4 1.676 1.676 0 0 0 .6.229 2.729 2.729 0 0 0 2.347-.151 3.163 3.163 0 0 0 .583-.719 8.665 8.665 0 0 1 1.4-1.587 19.85 19.85 0 0 0-.942 3.577l-.347 1.752a2.1 2.1 0 0 0-.06.608 1.251 1.251 0 0 0 .036.19c.252.1.8.526.841 2.359 0 0-.057 6.2 1.309 7.111 0 0-.114 1.877.626 2.332a14.3 14.3 0 0 0 4.892.683s3.527-.057 3.641-.8h.023l-.027-.205a.782.782 0 0 0-.8-.9l-2.136-.257a.532.532 0 0 1-.556-.563c-.12-.613-.161-1.069-.3-1.678a8.948 8.948 0 0 1 .617-5.741c.307-.655.693-1.269 1.047-1.9a21.624 21.624 0 0 0 1.365-2.933c.3-.792.5-1.966 1.362-2.361.755-.345 1.608.123 2.353.433a21.17 21.17 0 0 1 4.338.457l3.868 1.081a4.648 4.648 0 0 0 2.751.988 13.122 13.122 0 0 1-.07-.625 2.061 2.061 0 0 1 .607-1.959z" transform="translate(-211.303 186.8)" style="fill:url(#nkthf9fxaf)"/>
                    <g data-name="그룹 195">
                        <g data-name="그룹 189">
                            <g data-name="그룹 184">
                                <path data-name="패스 55" d="M580.319 233.036a.546.546 0 0 1 .416-.109l-2.17-3.449a.563.563 0 0 0 .031-.123 1.072 1.072 0 0 0-.146.383 1.418 1.418 0 0 0 .139.7q.423 1.093.916 2.157a.515.515 0 0 1-.21.205.849.849 0 0 1-.423.069c-.666-.021-1.4-.241-1.958.117a2.061 2.061 0 0 0-.619 1.977c.018.209.042.417.069.625.253.024.523.038.816.038a1.979 1.979 0 0 1-.3-1.582.9.9 0 0 1 .135-.282.907.907 0 0 1 1.025-.217 3.384 3.384 0 0 1 .926.625 8.224 8.224 0 0 0 .936.656c.255-.012.446-.11.476-.361a1.853 1.853 0 0 1-.3-.676c0-.01 0-.019-.005-.029a.787.787 0 0 1 .246-.724zm-.628-.051c.094.2.187.393.284.588q-.145-.292-.284-.588z" transform="translate(-466.204 128.552)" style="fill:url(#03hlvc617b)"/>
                                <g data-name="그룹 173">
                                    <path data-name="패스 56" d="M580.992 255.845a.907.907 0 0 0-1.025.217.9.9 0 0 0-.135.282 1.979 1.979 0 0 0 .3 1.582h.188s.91.683 1.024.057v-1.253a4.328 4.328 0 0 0 1.514.4 8.217 8.217 0 0 1-.936-.656 3.385 3.385 0 0 0-.93-.629z" transform="translate(-469.149 106.249)" style="fill:#262424"/>
                                </g>
                                <g data-name="그룹 174">
                                    <path data-name="패스 57" d="m601.3 252.309-.049-.078a.546.546 0 0 0-.416.109.786.786 0 0 0-.239.721 1.8 1.8 0 0 0 .3.705.663.663 0 0 0 0-.149s1.146.001.404-1.308z" transform="translate(-486.723 109.247)" style="fill:#424243"/>
                                </g>
                                <g data-name="그룹 175">
                                    <path data-name="패스 58" d="M531.135 207.413c0-.385-.259-.495-.591-.58l-1.55-.4a.9.9 0 0 0-.627-.006.6.6 0 0 0-.284.562 1.776 1.776 0 0 0 .184.634l.425.984a1.476 1.476 0 0 0 .178.332.738.738 0 0 0 1.259-.162c-.028-.006-.047.039-.024.056s.018.051.012.078a1.22 1.22 0 0 1-.72.962c-1.561.42-1.587-1.889-1.678-2.8a1.1 1.1 0 0 1 0-.346.756.756 0 0 1 .58-.522 2.226 2.226 0 0 1 .817.007 4.773 4.773 0 0 1 1.5.368 1.126 1.126 0 0 1 .42.323.554.554 0 0 1 .099.51z" transform="translate(-425.205 148.118)" style="fill:#e6e6e7"/>
                                </g>
                                <g data-name="그룹 176">
                                    <path data-name="패스 59" d="M535.656 210.937a3.347 3.347 0 0 0-1.5-.818.175.175 0 0 0-.164.017.148.148 0 0 0-.037.091.82.82 0 0 0 .249.587 4.954 4.954 0 0 0 .919.855c.621.442 1.077-.221.533-.732z" transform="translate(-430.479 144.797)" style="fill:#6d6e70"/>
                                </g>
                                <g data-name="그룹 177">
                                    <path data-name="패스 60" d="M583.283 228.131c-.283 0-.5-.309-.5-.7s.222-.7.5-.7.5.309.5.7-.218.7-.5.7zm0-1.251c-.189 0-.349.251-.349.548s.16.548.349.548.349-.251.349-.548-.16-.548-.349-.548z" transform="translate(-471.689 130.772)" style="fill:#d0d1d3"/>
                                </g>
                                <g data-name="그룹 178">
                                    <path data-name="패스 61" d="M585.073 229.543c0 .173-.1.313-.213.313s-.213-.14-.213-.313.1-.313.213-.313.213.14.213.313z" transform="translate(-473.266 128.657)" style="fill:#262424"/>
                                </g>
                                <g data-name="그룹 179">
                                    <path data-name="패스 62" d="M466.532 249.678c-.863.395-1.064 1.569-1.362 2.361a21.621 21.621 0 0 1-1.365 2.933c-.354.631-.739 1.246-1.047 1.9a8.948 8.948 0 0 0-.617 5.741c.139.609.18 1.065.3 1.678a.532.532 0 0 0 .556.563l2.136.257a.782.782 0 0 1 .8.9l.027.205c.319.015 4.276.187 5.04-.741 0 0 1.024-.284-.171-.626a6.5 6.5 0 0 1-2.958-.74s-1.252-.626-1.365-3.072l-.4-5.973a35.782 35.782 0 0 0 1.308-4.892s.555-.06 1.465-.059c-.739-.313-1.591-.781-2.347-.435z" transform="translate(-369.679 111.501)" style="fill:url(#flyro3ljpc)"/>
                                </g>
                                <g data-name="그룹 180">
                                    <path data-name="패스 63" d="m387.288 247.447.347-1.752a19.866 19.866 0 0 1 .942-3.577 8.664 8.664 0 0 0-1.4 1.587 3.164 3.164 0 0 1-.583.719 2.729 2.729 0 0 1-2.347.151 1.677 1.677 0 0 1-.6-.229 2.246 2.246 0 0 1-.377-.4 3.3 3.3 0 0 0-1.164-.877 6.876 6.876 0 0 1 .511 5.064c-.11.33-.254.651-.36.982a4.246 4.246 0 0 1 3.117-.842l1.763-.057a.393.393 0 0 1 .126.031 1.252 1.252 0 0 1-.036-.19 2.1 2.1 0 0 1 .061-.61z" transform="translate(-302.31 117.778)" style="fill:url(#erj3wimg0g)"/>
                                </g>
                                <g data-name="그룹 182">
                                    <g data-name="그룹 181">
                                        <path data-name="패스 64" d="M276.119 277.893a20.535 20.535 0 0 0 1.4-3.013 2.223 2.223 0 0 0-.288-.544c-.722-.984-2.006-1.547-2.842-2.449a17.188 17.188 0 0 1-1.411-1.737c-.137-.193-1.16-1.5-1.055-1.687l-.065.113h.032a5.64 5.64 0 0 1 .341 3.243l-2.56 6.6a1.68 1.68 0 0 0 1.422 2.674l6.087-.114v.259c.14-.737.295-1.474.4-2.209.017-.114.028-.228.042-.343q-.744-.409-1.503-.793z" transform="translate(-207.144 95.541)" style="fill:url(#8ygbiziflh)"/>
                                    </g>
                                </g>
                                <g data-name="그룹 183">
                                    <path data-name="패스 65" d="M282.871 250.966c.275-.479-.006-1.067-.2-1.586a4.662 4.662 0 0 1-.283-1.7l1.068 2.158a3.3 3.3 0 0 1 .171 2.3z" transform="translate(-218.143 113.088)" style="fill:#e6e6e7"/>
                                </g>
                            </g>
                            <g data-name="그룹 185">
                                <path data-name="패스 66" d="M351.065 347.251h-.016a29.093 29.093 0 0 0-3.4-.217.128.128 0 0 1 0-.256 29.263 29.263 0 0 1 3.43.219.128.128 0 0 1-.015.255z" transform="translate(-273.118 29.44)" style="fill:#f1f1f2"/>
                            </g>
                            <g data-name="그룹 186">
                                <path data-name="패스 67" d="M447.7 346.831a.128.128 0 0 1-.036-.251 6.533 6.533 0 0 1 2.8-.182.128.128 0 0 1-.039.253 6.28 6.28 0 0 0-2.685.175.129.129 0 0 1-.04.005z" transform="translate(-357.566 29.823)" style="fill:#f1f1f2"/>
                            </g>
                            <g data-name="그룹 187">
                                <path data-name="패스 68" d="M354.069 340.217a.126.126 0 0 1-.053-.012 4.881 4.881 0 0 0-1.987-.427.128.128 0 0 1 0-.256 5.119 5.119 0 0 1 2.094.45.128.128 0 0 1-.053.244z" transform="translate(-276.814 35.563)" style="fill:#f1f1f2"/>
                            </g>
                            <g data-name="그룹 188">
                                <path data-name="패스 69" d="M452.391 340.021a.128.128 0 0 1-.077-.026 2.013 2.013 0 0 0-1.786-.315.128.128 0 1 1-.076-.244 2.274 2.274 0 0 1 2.017.355.128.128 0 0 1-.078.23z" transform="translate(-359.922 35.719)" style="fill:#f1f1f2"/>
                            </g>
                        </g>
                        <g data-name="그룹 190">
                            <path data-name="패스 70" d="M298.442 331.25a1.316 1.316 0 0 1-.225-.019.128.128 0 1 1 .044-.252 1.492 1.492 0 0 0 1.306-.548 4.071 4.071 0 0 0 .709-1.379.128.128 0 1 1 .242.084 4.347 4.347 0 0 1-.758 1.464 1.806 1.806 0 0 1-1.318.65z" transform="translate(-231.412 44.474)" style="fill:#d0d1d3"/>
                        </g>
                        <g data-name="그룹 191">
                            <path data-name="패스 71" d="M489.449 335.821a.128.128 0 0 1-.025-.254.756.756 0 0 0 .449-1.1.128.128 0 0 1 .212-.144 1.011 1.011 0 0 1-.611 1.5z" transform="translate(-392.805 40)" style="fill:#d0d1d3"/>
                        </g>
                        <g data-name="그룹 192">
                            <path data-name="패스 72" d="M508.783 350.406a.128.128 0 0 1-.091-.218.116.116 0 0 0 .026-.1.262.262 0 0 0-.127-.181.856.856 0 0 0-.5-.029 1.069 1.069 0 0 1-.654-.058.128.128 0 0 1 .121-.226.84.84 0 0 0 .5.03 1.081 1.081 0 0 1 .654.056.519.519 0 0 1 .26.368.368.368 0 0 1-.1.324.127.127 0 0 1-.089.034z" transform="translate(-408.041 27.077)" style="fill:#d0d1d3"/>
                        </g>
                        <g data-name="그룹 193">
                            <path data-name="패스 73" d="M379.375 355.5a.128.128 0 0 1-.116-.182.218.218 0 0 0-.008-.192.543.543 0 0 0-.336-.266 1.868 1.868 0 0 0-.414-.043 2.192 2.192 0 0 1-.452-.047.128.128 0 1 1 .061-.249 1.961 1.961 0 0 0 .4.04 2.091 2.091 0 0 1 .471.052.793.793 0 0 1 .5.405.476.476 0 0 1 .008.409.128.128 0 0 1-.114.073z" transform="translate(-298.803 22.906)" style="fill:#e6e6e7"/>
                        </g>
                        <g data-name="그룹 194">
                            <path data-name="패스 74" d="M476.02 353.629a.128.128 0 0 1-.068-.019 2.434 2.434 0 0 0-1.817-.3.128.128 0 1 1-.057-.249 2.69 2.69 0 0 1 2.01.337.128.128 0 0 1-.068.237z" transform="translate(-379.855 24.197)" style="fill:#e6e6e7"/>
                        </g>
                    </g>
                </g>
                <path data-name="패스 75" d="M423.073 214.915a.077.077 0 0 1-.031-.006.078.078 0 0 1-.041-.1 10.368 10.368 0 0 1 3.275-4.166.078.078 0 0 1 .094.124 10.212 10.212 0 0 0-3.225 4.1.078.078 0 0 1-.072.048z" transform="translate(-336.822 144.362)" style="fill:#e6e6e7"/>
                <path data-name="패스 76" d="M355.415 231.048a.077.077 0 0 1-.043-.013 13.711 13.711 0 0 0-4.193-1.84.078.078 0 0 1 .038-.151 13.867 13.867 0 0 1 4.24 1.861.078.078 0 0 1-.043.143z" transform="translate(-276.155 128.816)" style="fill:#e6e6e7"/>
                <path data-name="패스 77" d="M488.88 237.033a.078.078 0 0 1-.066-.12.969.969 0 0 0-.138-1.174.078.078 0 1 1 .109-.112 1.13 1.13 0 0 1 .161 1.368.078.078 0 0 1-.066.038z" transform="translate(-392.242 123.276)" style="fill:#e6e6e7"/>
                <path data-name="패스 78" d="M289.163 246.9a.078.078 0 0 1-.078-.073 3.194 3.194 0 0 1 .389-1.723.078.078 0 1 1 .136.076 3.037 3.037 0 0 0-.37 1.638.078.078 0 0 1-.073.083z" transform="translate(-223.789 115.29)" style="fill:#e6e6e7"/>
                <path data-name="패스 79" d="M558.14 255.046a.078.078 0 0 1-.061-.029 2.362 2.362 0 0 1-.477-1.053.078.078 0 0 1 .154-.028 2.2 2.2 0 0 0 .445.983.078.078 0 0 1-.012.11.077.077 0 0 1-.049.017z" transform="translate(-450.438 107.858)" style="fill:#e6e6e7"/>
            </g>
        </g>
    </g>
</svg>
