<svg xmlns="http://www.w3.org/2000/svg" width="218.595" height="68.101" viewBox="0 0 218.595 68.101">
    <path data-name="패스 24" d="m136.7 191.626-5.409 10.835c4.271.094 8.243-2.334 9.693-5.689 1.428-3.3-.016-6-3.532-6.608-9.564-1.648-16.656 4.3-17.21 14.423-.085 1.541-.145 3.085-.337 4.611-.793 6.3-2.786 7.391-8.457 4.7-3.217 1.985-4.494 1.988-7.69.028-3.875 4.5-13.734 4.475-16.933-.541s-6.419-9.086-13.407-6.8v-11.276a41.382 41.382 0 0 0 6.01-.075 11.777 11.777 0 0 0 3.658-1.73 2.33 2.33 0 0 0 .767-1.107c2.985-6.941 8.639-8.51 15.417-7.441 1.6.255 3.07 1.4 5.051 2.352 2.849-1.478 4.645-1.406 7.35.711 2.824-2.157 5.17-2.189 7.69-.327 7.3-2.01 14.241-5.007 21.786-2.51 4.988 1.651 6.8 7 4.35 12.42-2.352 5.2-6.928 7.1-12.168 7.995-1.2.208-3.164.535-3.343 1.2a23.457 23.457 0 0 0-.421 6.284c.006.506.7 1.01 1.079 1.519-3.1 1.635-6.123.365-6.469-2.909-.723-6.85 1.639-13.162 4.585-19.053 1.374-2.766 4.909-1.725 7.94-1.012z" style="fill:#19984b" transform="translate(-73.42 -184.233)"/>
    <path data-name="패스 25" d="M462.153 208.8c-5.935 6.539-8.646 5.095-10.668.906a33.544 33.544 0 0 1-3.041 2.692c-2.708 1.893-5.828.793-6.01-2.469s.657-6.586.89-9.894c.075-1.11 1.739-2.563-.459-3.4a10.6 10.6 0 0 1 .818-2.041c.692-1.047 1.8-1.887 2.255-3.01 1.8-4.45 3.881-5.208 8.438-2.755-.723 1.626-1.447 3.268-2.132 4.812.535.689.994 1.286 1.453 1.884-.591.453-1.173.922-1.783 1.352-.352.248-1 .349-1.1.654A104.184 104.184 0 0 0 447.24 210a7.532 7.532 0 0 0 4.834-5.174c.651-2.167 1.227-4.362 1.95-6.507 1.428-4.23 4.117-5.067 8.325-2.532-2.117 4.548-4.516 9.051-4.821 14.266a8.406 8.406 0 0 0 4.523-6.579c.462-3.787 2.079-6.991 5.592-8.831 4-2.091 8.032.314 8.058 4.7.016 2.815-.827 3.522-3.843 3.277.418-1.252.846-2.525 1.384-4.142-3.667 1.227-6.391 8.036-4.538 10.68.5.711 2.714 1.217 3.158.793a16.577 16.577 0 0 0 4.284-5.551c1.645-4.3 2.513-8.888 4.007-13.253 1.462-4.274 4.2-4.988 8.133-2.547q-3.142 8.468-6.274 16.9c.145.053.289.1.434.157 2-2.786 3.868-5.692 6.076-8.309a8.583 8.583 0 0 1 4.164-2.758c2.834-.7 4.488 1.528 3.469 4.284-1.006 2.717-2.091 5.4-3.044 8.139a30.765 30.765 0 0 0-.727 3.821 10.674 10.674 0 0 0 5-6.781 21.436 21.436 0 0 1 2.481-6.51 9.3 9.3 0 0 1 4.422-3.312 5.059 5.059 0 0 1 5.928 1.585 5.473 5.473 0 0 1 .569 5.906 4.9 4.9 0 0 1-5.18 3.183c-.541-.028-1.082 0-1.764 0-.415 1.918-1.069 4 .966 5.13 2.095 1.161 3.972-.157 5.136-1.862a23.157 23.157 0 0 0 2.305-5.111c.494-1.352.673-2.824 1.1-4.208 1.381-4.419 4.39-5.409 8.5-2.758q-1.16 2.09-2.334 4.2c.063.047.126.1.192.148 1.412-1.544 2.642-3.346 4.306-4.545a6.141 6.141 0 0 1 4.394-1.06c.686.151 1.261 2.4 1.277 3.714.047 3.941-2.022 6.6-4.68 6.406a4.278 4.278 0 0 1-1.192-.459c.393-1.359.745-2.579 1.1-3.8l-.638-.44a10.273 10.273 0 0 0-2.393 2.18c-1.541 2.752-2.831 5.645-4.28 8.454-.478.94-1.138 1.793-1.711 2.686a25.036 25.036 0 0 1-3.17-2.151 2.913 2.913 0 0 1-.61-1.45c-2.588 1.035-5.092 2.466-7.774 2.994-3.151.62-5.567-1.05-6.834-4.2-2.513 2.12-4.167 6.117-8.089 4.183-3.783-1.865-1.922-5.74-2.23-9.52-1.654 2.805-3.013 5.174-4.438 7.5-.708 1.145-.981 3.249-2.9 2.519-1.349-.509-2.381-1.9-3.5-2.953-.223-.208-.217-.66-.129-.355-2.538.981-4.979 2.34-7.58 2.821-3.072.574-5.358-1.112-6.481-4.168zm41.841-6.177c4.277-.4 5.064-1.528 3.444-4.563-1.103 1.465-2.085 2.761-3.443 4.563z" transform="translate(-326.361 -186.266)" style="fill:#19984b"/>
    <path data-name="패스 26" d="M315.036 209.9a26.163 26.163 0 0 1-3.107 2.906c-2.96 2.091-6.013.733-6.155-2.89a33.844 33.844 0 0 1 .783-8.341 78.663 78.663 0 0 1 2.865-9.347c1.642-4.658 4.019-5.438 8.444-2.985-2.786 6.91-5.966 13.684-6.784 21.27a8.908 8.908 0 0 0 4.494-6.174 19.639 19.639 0 0 1 3.409-7.463c2.639-3.261 6.1-3.123 9.187-.34 2.529-2.038 4.482-2.142 7.526-.459-1.8 4.74-3.588 9.476-5.608 14.807 3.881-1.469 6.3-5.7 5.774-8.62a5.709 5.709 0 0 1 2.978-6.186c2.941-1.821 6.715-1.944 8.451-.384 1.623 1.456 1.308 4.151-.434 5.859-1.422-.8-2.7-1.6-4.06-2.224a1.432 1.432 0 0 0-1.264.635 1.57 1.57 0 0 0 .487 1.356c.969.811 2.126 1.4 3.079 2.224a5.466 5.466 0 0 1-1.088 9.262 8.424 8.424 0 0 1-9.835-1.664c-4.8 3.554-6.432 3.494-8.655-.116-1.834.67-3.667 1.95-5.378 1.8-1.662-.162-3.2-1.769-5.109-2.926zm6.671.805c3.224-1.752 5.428-8.231 4.12-11.577-2.927 1.425-4.878 6.772-4.12 11.572zm15.455-5.743c-.321 1.069-.918 1.988-.733 2.7a3.765 3.765 0 0 0 1.742 2.456c.912.324 2.148-.261 3.243-.447a12.26 12.26 0 0 0-1.437-2.8 14 14 0 0 0-2.816-1.912z" transform="translate(-232.684 -186.731)" style="fill:#19984b"/>
    <path data-name="패스 27" d="M735.592 216.234c-.233 4.026-1.639 7.639-5.142 10.152-4.34 3.114-8.935 1.289-9.756-3.956a13.377 13.377 0 0 1 3.123-11.14 7.053 7.053 0 0 1 8.1-2.211c3.03 1.346 3.583 4.057 3.675 7.155zm-8.646 9.281c1.167-.78 2.318-1.123 2.62-1.827a65.573 65.573 0 0 0 2.815-8.086c.176-.623-.6-1.51-.937-2.274-.733.437-1.745.7-2.151 1.337a15.382 15.382 0 0 0-2.347 10.85z" transform="translate(-516.997 -200.912)" style="fill:#19984b"/>
    <path data-name="패스 28" d="M492.857 195.4c-1.453-.283-3.437.192-3.595-2.224-.132-2.038 1.371-3.447 3.633-3.4 1.8.035 3.658.324 3.645 2.626-.009 2.21-1.415 3.222-3.683 2.998z" transform="translate(-358.474 -188.033)" style="fill:#19984b"/>
    <path d="M5.34 0a.73.73 0 0 1-.49-.18.926.926 0 0 1-.29-.46L.46-14.5a.983.983 0 0 1 .05-.8.656.656 0 0 1 .61-.32.84.84 0 0 1 .45.13.783.783 0 0 1 .31.47l3.7 12.88h-.46l3.5-12.54a.623.623 0 0 1 .27-.36.829.829 0 0 1 .47-.14.891.891 0 0 1 .46.13.586.586 0 0 1 .28.39l3.52 12.52h-.46l3.72-12.96a.692.692 0 0 1 .76-.52.587.587 0 0 1 .58.33 1.123 1.123 0 0 1 .04.79L14.18-.66a.989.989 0 0 1-.31.49.756.756 0 0 1-.49.17.73.73 0 0 1-.49-.18.926.926 0 0 1-.29-.46l-3.48-12.7h.48L6.14-.66a1.055 1.055 0 0 1-.31.48.73.73 0 0 1-.49.18zm23.84.1a5.271 5.271 0 0 1-2.76-.73 5.319 5.319 0 0 1-1.93-1.99 5.684 5.684 0 0 1-.71-2.84 5.6 5.6 0 0 1 .73-2.86 5.377 5.377 0 0 1 1.99-1.99 5.561 5.561 0 0 1 2.84-.73 5.507 5.507 0 0 1 2.83.73 5.4 5.4 0 0 1 1.98 1.99 5.748 5.748 0 0 1 .75 2.86l-.62.48a5.049 5.049 0 0 1-.67 2.59 4.964 4.964 0 0 1-1.82 1.82 5.088 5.088 0 0 1-2.61.67zm.16-1.4a3.978 3.978 0 0 0 2.07-.54 3.916 3.916 0 0 0 1.44-1.49 4.3 4.3 0 0 0 .53-2.13 4.281 4.281 0 0 0-.53-2.14 4.012 4.012 0 0 0-1.44-1.49 3.923 3.923 0 0 0-2.07-.55 3.937 3.937 0 0 0-2.06.55 4.065 4.065 0 0 0-1.46 1.49 4.218 4.218 0 0 0-.54 2.14 4.234 4.234 0 0 0 .54 2.13 3.966 3.966 0 0 0 1.46 1.49 3.993 3.993 0 0 0 2.06.54zM34.12 0a.778.778 0 0 1-.56-.21.726.726 0 0 1-.22-.55v-3.42l.38-1.58 1.18.3v4.7a.726.726 0 0 1-.22.55.778.778 0 0 1-.56.21zm12.14 0a2.437 2.437 0 0 1-1.43-.44 2.891 2.891 0 0 1-.98-1.22 4.358 4.358 0 0 1-.35-1.8v-11.4a.744.744 0 0 1 .21-.55.744.744 0 0 1 .55-.21.744.744 0 0 1 .55.21.744.744 0 0 1 .21.55v11.4a2.534 2.534 0 0 0 .35 1.4 1.035 1.035 0 0 0 .89.54h.5a.6.6 0 0 1 .48.21.816.816 0 0 1 .18.55.684.684 0 0 1-.25.55.976.976 0 0 1-.65.21zM57.9 0a2.437 2.437 0 0 1-1.43-.44 2.891 2.891 0 0 1-.98-1.22 4.358 4.358 0 0 1-.35-1.8v-11.4a.744.744 0 0 1 .21-.55.744.744 0 0 1 .55-.21.744.744 0 0 1 .55.21.744.744 0 0 1 .21.55v11.4a2.534 2.534 0 0 0 .35 1.4 1.035 1.035 0 0 0 .89.54h.5a.6.6 0 0 1 .48.21.816.816 0 0 1 .18.55.684.684 0 0 1-.25.55.976.976 0 0 1-.65.21zm13.64.1a5.709 5.709 0 0 1-2.87-.71 5.106 5.106 0 0 1-1.96-1.97A5.764 5.764 0 0 1 66-5.46a6.025 6.025 0 0 1 .67-2.89 5.063 5.063 0 0 1 1.85-1.97 5.117 5.117 0 0 1 2.72-.72 4.984 4.984 0 0 1 2.65.69 4.662 4.662 0 0 1 1.75 1.91 6.051 6.051 0 0 1 .62 2.78.67.67 0 0 1-.2.51.724.724 0 0 1-.52.19h-8.5v-1.28h8.66l-.86.62a4.574 4.574 0 0 0-.42-2.08 3.424 3.424 0 0 0-1.25-1.44 3.5 3.5 0 0 0-1.93-.52 3.681 3.681 0 0 0-2 .54 3.607 3.607 0 0 0-1.33 1.49 4.831 4.831 0 0 0-.47 2.17 4.322 4.322 0 0 0 .53 2.16 3.913 3.913 0 0 0 1.45 1.48 4.11 4.11 0 0 0 2.12.54 4.454 4.454 0 0 0 1.45-.25 3.517 3.517 0 0 0 1.17-.63.816.816 0 0 1 .5-.19.7.7 0 0 1 .48.15.741.741 0 0 1 .27.52.577.577 0 0 1-.23.48 5.438 5.438 0 0 1-1.68.93 5.74 5.74 0 0 1-1.96.37zm17.6-.1a3.59 3.59 0 0 1-1.89-.5 3.6 3.6 0 0 1-1.31-1.37 4.051 4.051 0 0 1-.48-1.99v-9.78a.778.778 0 0 1 .21-.56.726.726 0 0 1 .55-.22.759.759 0 0 1 .56.22.759.759 0 0 1 .22.56v9.78a2.365 2.365 0 0 0 .6 1.67 2 2 0 0 0 1.54.65h.54a.67.67 0 0 1 .52.22.8.8 0 0 1 .2.56.7.7 0 0 1-.24.55.878.878 0 0 1-.6.21zm-4.98-9.2a.7.7 0 0 1-.5-.19.622.622 0 0 1-.2-.47.646.646 0 0 1 .2-.49.7.7 0 0 1 .5-.19h5.1a.7.7 0 0 1 .5.19.646.646 0 0 1 .2.49.622.622 0 0 1-.2.47.7.7 0 0 1-.5.19z" transform="translate(64.298 68.001)" style="fill:#767676"/>
</svg>
