<svg xmlns="http://www.w3.org/2000/svg" width="126.888" height="19.156" viewBox="0 0 126.888 19.156">
    <path data-name="패스 24" d="M110.153 188.525c-1.1 2.2-2.1 4.2-3.14 6.289a6.02 6.02 0 0 0 5.626-3.3 2.541 2.541 0 0 0-2.05-3.836c-5.552-.957-9.668 2.5-9.99 8.372-.049.895-.084 1.791-.2 2.676-.46 3.657-1.617 4.29-4.909 2.731-1.868 1.152-2.609 1.154-4.464.016-2.249 2.614-7.972 2.6-9.829-.314s-3.726-5.274-7.782-3.945v-6.55a24.018 24.018 0 0 0 3.489-.044 6.835 6.835 0 0 0 2.123-1 1.352 1.352 0 0 0 .445-.643c1.732-4.029 5.015-4.94 8.949-4.319a12.567 12.567 0 0 1 2.932 1.366 3.327 3.327 0 0 1 4.266.413c1.639-1.252 3-1.271 4.464-.19 4.239-1.167 8.266-2.906 12.646-1.457 2.9.958 3.947 4.066 2.525 7.209-1.366 3.018-4.022 4.119-7.063 4.641-.694.12-1.837.31-1.941.694a13.616 13.616 0 0 0-.245 3.648c0 .294.405.586.626.882-1.8.949-3.554.212-3.755-1.689-.42-3.976.951-7.64 2.662-11.059.803-1.61 2.855-1.005 4.615-.591z" style="fill:#fff" transform="translate(-73.42 -184.234)"/>
    <path data-name="패스 25" d="M453.87 199.738c-3.445 3.8-5.019 2.957-6.192.526a19.474 19.474 0 0 1-1.765 1.563c-1.572 1.1-3.383.46-3.489-1.433a46.634 46.634 0 0 1 .517-5.743c.044-.644 1.01-1.488-.267-1.972a6.149 6.149 0 0 1 .475-1.185 11.6 11.6 0 0 0 1.309-1.747c1.042-2.583 2.253-3.023 4.9-1.6-.42.944-.84 1.9-1.238 2.793.31.4.577.747.843 1.094-.343.263-.681.535-1.035.785-.2.144-.579.2-.639.38a60.478 60.478 0 0 0-2.074 7.235 4.372 4.372 0 0 0 2.806-3c.378-1.258.712-2.532 1.132-3.777.829-2.455 2.39-2.941 4.832-1.47-1.229 2.64-2.622 5.254-2.8 8.281a4.879 4.879 0 0 0 2.625-3.819 6.235 6.235 0 0 1 3.246-5.126 3.043 3.043 0 0 1 4.677 2.726c.009 1.634-.48 2.045-2.231 1.9.243-.727.491-1.466.8-2.4-2.129.712-3.71 4.664-2.634 6.2.29.413 1.576.707 1.833.46a9.623 9.623 0 0 0 2.486-3.222c.955-2.5 1.459-5.159 2.326-7.693.849-2.481 2.437-2.9 4.721-1.479l-3.642 9.811.252.091c1.163-1.617 2.245-3.3 3.527-4.823a4.982 4.982 0 0 1 2.417-1.6c1.645-.407 2.605.887 2.014 2.486-.584 1.577-1.214 3.136-1.767 4.725a17.869 17.869 0 0 0-.422 2.218 6.2 6.2 0 0 0 2.9-3.936 12.444 12.444 0 0 1 1.44-3.779 5.4 5.4 0 0 1 2.567-1.922 2.937 2.937 0 0 1 3.441.92 3.177 3.177 0 0 1 .331 3.428 2.842 2.842 0 0 1-3.007 1.847c-.314-.016-.628 0-1.024 0-.241 1.114-.621 2.324.56 2.978 1.216.674 2.306-.091 2.981-1.081a13.442 13.442 0 0 0 1.338-2.967c.287-.785.391-1.639.641-2.443.8-2.565 2.549-3.14 4.936-1.6l-1.355 2.437c.036.027.073.058.111.086a18.074 18.074 0 0 1 2.5-2.638 3.565 3.565 0 0 1 2.55-.615c.4.088.732 1.395.741 2.156.027 2.287-1.174 3.832-2.716 3.719a2.482 2.482 0 0 1-.692-.267l.637-2.2-.371-.256a5.964 5.964 0 0 0-1.389 1.265c-.895 1.6-1.643 3.277-2.485 4.907-.278.546-.661 1.041-.993 1.559a14.529 14.529 0 0 1-1.84-1.249 1.691 1.691 0 0 1-.354-.842 26.573 26.573 0 0 1-4.513 1.738c-1.829.36-3.231-.61-3.967-2.435-1.459 1.23-2.419 3.551-4.7 2.428-2.2-1.083-1.115-3.332-1.294-5.526-.96 1.628-1.749 3-2.576 4.352-.411.665-.57 1.886-1.683 1.462a7.317 7.317 0 0 1-2.034-1.714c-.13-.12-.126-.383-.075-.206a25.845 25.845 0 0 1-4.4 1.638c-1.77.323-3.098-.655-3.749-2.429zm24.288-3.585c2.483-.23 2.939-.887 2-2.649-.642.85-1.212 1.602-2.001 2.648z" transform="translate(-375.046 -186.658)" style="fill:#fff"/>
    <path data-name="패스 26" d="M311.141 200.659a15.184 15.184 0 0 1-1.8 1.687c-1.718 1.214-3.491.425-3.573-1.678a19.647 19.647 0 0 1 .455-4.841 45.658 45.658 0 0 1 1.663-5.426c.953-2.7 2.333-3.156 4.9-1.732-1.617 4.011-3.463 7.943-3.938 12.346a5.171 5.171 0 0 0 2.609-3.584 11.4 11.4 0 0 1 1.979-4.332c1.532-1.893 3.54-1.813 5.333-.2 1.468-1.183 2.6-1.243 4.369-.267l-3.255 8.595c2.253-.853 3.655-3.31 3.352-5a3.314 3.314 0 0 1 1.729-3.591c1.707-1.057 3.9-1.128 4.905-.223a2.359 2.359 0 0 1-.252 3.4c-.825-.466-1.566-.931-2.357-1.291a.831.831 0 0 0-.734.369.912.912 0 0 0 .283.787c.562.471 1.234.812 1.787 1.291a3.173 3.173 0 0 1-.632 5.376 4.89 4.89 0 0 1-5.709-.966c-2.788 2.063-3.733 2.028-5.024-.068-1.064.389-2.129 1.132-3.122 1.042-.967-.088-1.859-1.021-2.968-1.694zm3.872.467c1.871-1.017 3.151-4.778 2.392-6.72-1.698.829-2.831 3.932-2.391 6.72zm8.971-3.334c-.186.621-.533 1.154-.425 1.568a2.186 2.186 0 0 0 1.011 1.426c.53.188 1.247-.152 1.882-.259a7.115 7.115 0 0 0-.834-1.627 8.13 8.13 0 0 0-1.634-1.107z" transform="translate(-263.338 -187.213)" style="fill:#fff"/>
    <path data-name="패스 27" d="M729.263 213.016a7.349 7.349 0 0 1-2.985 5.893c-2.519 1.807-5.187.748-5.663-2.3a7.765 7.765 0 0 1 1.813-6.466 4.094 4.094 0 0 1 4.7-1.283c1.761.784 2.083 2.358 2.135 4.156zm-5.018 5.387c.677-.453 1.345-.652 1.521-1.061a38.066 38.066 0 0 0 1.634-4.694c.1-.361-.349-.876-.544-1.32-.425.254-1.013.4-1.249.776a8.928 8.928 0 0 0-1.362 6.296z" transform="translate(-602.376 -204.123)" style="fill:#fff"/>
    <path data-name="패스 28" d="M491.346 193.043c-.843-.164-2 .111-2.087-1.291a1.86 1.86 0 0 1 2.109-1.975c1.042.02 2.123.188 2.116 1.524-.006 1.282-.822 1.87-2.138 1.742z" transform="translate(-413.34 -188.765)" style="fill:#fff"/>
</svg>
