<svg xmlns="http://www.w3.org/2000/svg" width="205.523" height="31.027" viewBox="0 0 205.523 31.027">
    <g data-name="그룹 134">
        <path data-name="패스 24" d="M132.917 191.184c-1.777 3.56-3.4 6.807-5.086 10.187 4.016.089 7.75-2.194 9.113-5.349 1.342-3.1-.015-5.645-3.321-6.213-8.992-1.549-15.66 4.042-16.18 13.561-.08 1.449-.136 2.9-.316 4.335-.745 5.923-2.62 6.949-7.951 4.424-3.025 1.866-4.225 1.869-7.23.027-3.643 4.234-12.913 4.208-15.92-.509s-6.035-8.543-12.605-6.39v-10.61a38.907 38.907 0 0 0 5.651-.071 11.072 11.072 0 0 0 3.439-1.626 2.191 2.191 0 0 0 .721-1.041c2.806-6.526 8.123-8 14.495-7 1.508.239 2.886 1.313 4.749 2.212 2.679-1.39 4.367-1.322 6.91.668 2.655-2.028 4.861-2.058 7.23-.308 6.866-1.889 13.389-4.707 20.483-2.36 4.69 1.552 6.393 6.585 4.089 11.677-2.212 4.888-6.514 6.671-11.44 7.517-1.124.2-2.975.5-3.143 1.124a22.055 22.055 0 0 0-.4 5.908c.006.476.656.949 1.014 1.428-2.916 1.538-5.757.343-6.082-2.735-.68-6.44 1.541-12.375 4.311-17.913 1.295-2.593 4.618-1.614 7.469-.943z" transform="translate(-73.42 -184.234)" style="fill:#19984b"/>
        <path data-name="패스 25" d="M460.973 207.508c-5.58 6.147-8.129 4.79-10.03.852a31.538 31.538 0 0 1-2.859 2.531c-2.546 1.78-5.479.745-5.651-2.321s.618-6.192.837-9.3c.071-1.044 1.635-2.41-.432-3.193a9.966 9.966 0 0 1 .769-1.919c.651-.985 1.694-1.774 2.12-2.83 1.688-4.184 3.649-4.9 7.934-2.59-.68 1.529-1.36 3.072-2 4.524.5.648.934 1.209 1.366 1.771-.556.426-1.1.866-1.677 1.271-.331.234-.937.328-1.035.615a97.949 97.949 0 0 0-3.359 11.718 7.081 7.081 0 0 0 4.545-4.864c.612-2.037 1.153-4.1 1.833-6.118 1.342-3.977 3.871-4.764 7.827-2.38-1.99 4.276-4.246 8.51-4.533 13.413a7.9 7.9 0 0 0 4.252-6.186c.435-3.56 1.955-6.573 5.257-8.3 3.758-1.966 7.552.3 7.576 4.415.015 2.646-.778 3.312-3.613 3.081.393-1.177.8-2.374 1.3-3.894-3.448 1.153-6.009 7.555-4.267 10.042.47.668 2.552 1.144 2.969.745a15.585 15.585 0 0 0 4.027-5.219c1.547-4.042 2.363-8.356 3.767-12.461 1.375-4.018 3.948-4.69 7.647-2.4q-2.954 7.962-5.9 15.891l.408.148c1.884-2.62 3.637-5.352 5.713-7.812a8.07 8.07 0 0 1 3.915-2.593c2.664-.659 4.22 1.437 3.262 4.027-.946 2.555-1.966 5.08-2.862 7.653a28.931 28.931 0 0 0-.683 3.593 10.035 10.035 0 0 0 4.7-6.375 20.155 20.155 0 0 1 2.333-6.121 8.74 8.74 0 0 1 4.157-3.114 4.757 4.757 0 0 1 5.574 1.49 5.146 5.146 0 0 1 .535 5.553 4.6 4.6 0 0 1-4.87 2.992c-.509-.027-1.017 0-1.659 0-.39 1.8-1.005 3.764.908 4.823 1.969 1.091 3.735-.148 4.829-1.751a21.772 21.772 0 0 0 2.167-4.805c.464-1.271.633-2.655 1.038-3.956 1.3-4.155 4.128-5.086 8-2.593q-1.091 1.965-2.194 3.947c.059.044.118.095.18.139a29.278 29.278 0 0 1 4.048-4.273 5.774 5.774 0 0 1 4.131-1c.645.142 1.186 2.259 1.2 3.492.044 3.705-1.9 6.207-4.4 6.023a4.021 4.021 0 0 1-1.121-.432c.37-1.277.7-2.425 1.032-3.569l-.6-.414a9.658 9.658 0 0 0-2.25 2.049c-1.449 2.587-2.661 5.308-4.024 7.948-.45.884-1.07 1.685-1.609 2.525a23.541 23.541 0 0 1-2.981-2.023 2.739 2.739 0 0 1-.574-1.363c-2.434.973-4.787 2.318-7.31 2.815-2.963.583-5.234-.988-6.425-3.945-2.363 1.993-3.918 5.751-7.605 3.933-3.557-1.753-1.807-5.4-2.1-8.951-1.555 2.638-2.833 4.864-4.172 7.049-.665 1.076-.923 3.055-2.726 2.369-1.268-.479-2.238-1.789-3.294-2.777-.21-.2-.2-.621-.121-.334-2.386.923-4.681 2.2-7.126 2.652-2.889.546-5.039-1.039-6.094-3.913zm39.339-5.807c4.021-.373 4.761-1.437 3.238-4.291-1.038 1.378-1.961 2.596-3.238 4.29z" transform="translate(-333.3 -186.322)" style="fill:#19984b"/>
        <path data-name="패스 26" d="M314.481 208.58a24.6 24.6 0 0 1-2.921 2.732c-2.783 1.966-5.654.689-5.787-2.717a31.82 31.82 0 0 1 .736-7.842 73.955 73.955 0 0 1 2.694-8.788c1.544-4.379 3.779-5.113 7.939-2.806-2.62 6.5-5.609 12.866-6.378 20a8.375 8.375 0 0 0 4.226-5.8 18.465 18.465 0 0 1 3.205-7.017c2.481-3.066 5.734-2.936 8.637-.319 2.377-1.916 4.214-2.014 7.076-.432l-5.272 13.921c3.649-1.381 5.92-5.361 5.429-8.1a5.368 5.368 0 0 1 2.8-5.816c2.765-1.712 6.313-1.827 7.945-.361 1.526 1.369 1.23 3.9-.408 5.509-1.337-.754-2.537-1.508-3.817-2.091a1.347 1.347 0 0 0-1.189.6 1.477 1.477 0 0 0 .458 1.274c.911.763 2 1.316 2.895 2.091a5.139 5.139 0 0 1-1.023 8.708 7.921 7.921 0 0 1-9.246-1.564c-4.515 3.341-6.047 3.285-8.138-.109-1.724.63-3.448 1.833-5.056 1.688-1.564-.159-3.01-1.67-4.805-2.761zm6.272.757c3.031-1.647 5.1-7.738 3.874-10.885-2.751 1.343-4.587 6.369-3.874 10.885zm14.53-5.4c-.3 1.005-.863 1.869-.689 2.54a3.54 3.54 0 0 0 1.638 2.309c.858.3 2.02-.245 3.049-.42a11.527 11.527 0 0 0-1.351-2.635 13.165 13.165 0 0 0-2.647-1.794z" transform="translate(-237.053 -186.8)" style="fill:#19984b"/>
        <path data-name="패스 27" d="M734.69 215.775c-.219 3.785-1.541 7.182-4.835 9.545-4.081 2.927-8.4 1.212-9.172-3.72a12.577 12.577 0 0 1 2.936-10.474 6.632 6.632 0 0 1 7.611-2.079c2.854 1.266 3.37 3.815 3.46 6.728zm-8.129 8.726c1.1-.733 2.179-1.056 2.463-1.718a61.649 61.649 0 0 0 2.646-7.6c.166-.585-.565-1.419-.881-2.138-.689.411-1.641.653-2.023 1.257a14.462 14.462 0 0 0-2.205 10.198z" transform="translate(-529.167 -201.37)" style="fill:#19984b"/>
        <path data-name="패스 28" d="M492.642 195.068c-1.366-.266-3.232.18-3.38-2.091-.124-1.916 1.289-3.241 3.415-3.2 1.688.033 3.439.3 3.427 2.469-.004 2.077-1.33 3.029-3.462 2.822z" transform="translate(-366.294 -188.138)" style="fill:#19984b"/>
    </g>
</svg>
