<svg xmlns="http://www.w3.org/2000/svg" width="22" height="22" viewBox="0 0 22 22">
    <path data-name="사각형 1775" style="fill:none" d="M0 0h22v22H0z"/>
    <path data-name="패스 195" d="M534.466 125.286a1.233 1.233 0 0 0-.1-.171 1.854 1.854 0 0 0-.478-.511l-7.039-6.495a1.356 1.356 0 0 0-1.831 0l-7.039 6.495a1.853 1.853 0 0 0-.478.511 1.239 1.239 0 0 0-.1.171 1.765 1.765 0 0 0-.186.775v8.98a1.832 1.832 0 0 0 1.827 1.826h4.272a.874.874 0 0 0 .871-.871v-3.876a.855.855 0 0 1 .789-.9h1.907a.855.855 0 0 1 .789.9V136a.874.874 0 0 0 .871.871h4.273a1.831 1.831 0 0 0 1.826-1.826v-8.98a1.765 1.765 0 0 0-.174-.779z" transform="translate(-514.937 -116.311)" style="fill:#19984b;stroke:#19984b;stroke-miterlimit:10;stroke-width:1.5px"/>
</svg>
