<svg xmlns="http://www.w3.org/2000/svg" width="22" height="22" viewBox="0 0 22 22">
    <path data-name="사각형 1777" style="fill:none" d="M0 0h22v22H0z"/>
    <g data-name="Icon feather-settings">
        <path data-name="패스 191" d="M19.065 16.283a2.783 2.783 0 1 1-2.782-2.783 2.783 2.783 0 0 1 2.782 2.783z" transform="translate(-5.283 -5.283)" style="stroke:#121212;stroke-linecap:round;stroke-linejoin:round;stroke-width:1.5px;fill:none"/>
        <path data-name="패스 192" d="M18.227 14.227a1.5 1.5 0 0 0 .3 1.655l.055.055a1.819 1.819 0 1 1-2.573 2.573l-.055-.055a1.512 1.512 0 0 0-2.564 1.073v.155a1.818 1.818 0 1 1-3.636 0V19.6a1.5 1.5 0 0 0-.982-1.373 1.5 1.5 0 0 0-1.655.3l-.055.055a1.819 1.819 0 1 1-2.573-2.573l.055-.055a1.512 1.512 0 0 0-1.073-2.564h-.153a1.818 1.818 0 1 1 0-3.636H3.4a1.5 1.5 0 0 0 1.373-.982 1.5 1.5 0 0 0-.3-1.655l-.055-.055a1.819 1.819 0 1 1 2.573-2.571l.055.055a1.5 1.5 0 0 0 1.655.3h.073a1.5 1.5 0 0 0 .909-1.373v-.155a1.818 1.818 0 1 1 3.636 0V3.4a1.512 1.512 0 0 0 2.564 1.073l.055-.055a1.819 1.819 0 1 1 2.573 2.573l-.055.055a1.5 1.5 0 0 0-.3 1.655v.073a1.5 1.5 0 0 0 1.373.909h.155a1.818 1.818 0 1 1 0 3.636H19.6a1.5 1.5 0 0 0-1.373.909z" style="stroke:#121212;stroke-linecap:round;stroke-linejoin:round;stroke-width:1.5px;fill:none" transform="translate(-.5 -.5)"/>
    </g>
</svg>
